<mxfile modified="2022-05-02T08:00:08.592Z" host="app.diagrams.net" agent="5.0 (Windows NT 10.0; Win64; x64) AppleWebKit/537.36 (KHTML, like Gecko) Chrome/100.0.4896.127 Safari/537.36 Edg/100.0.1185.50" etag="I3Kkc7Df7WMoSGhf-bpr" compressed="false" version="17.5.0" type="google">
  <diagram id="D4FWViYs5BcG7JHKPlc3" name="ISO-29110-Basic Profile">
    <mxGraphModel grid="1" page="1" gridSize="10" guides="1" tooltips="1" connect="1" arrows="1" fold="1" pageScale="1" pageWidth="827" pageHeight="1169" math="0" shadow="0">
      <root>
        <mxCell id="bAPJZzLq3WR4gD21-JhD-0" />
        <mxCell id="bAPJZzLq3WR4gD21-JhD-1" parent="bAPJZzLq3WR4gD21-JhD-0" />
        <mxCell id="bAPJZzLq3WR4gD21-JhD-2" style="edgeStyle=orthogonalEdgeStyle;rounded=0;orthogonalLoop=1;jettySize=auto;html=1;entryX=0.202;entryY=-0.002;entryDx=0;entryDy=0;entryPerimeter=0;" edge="1" parent="bAPJZzLq3WR4gD21-JhD-1" target="bAPJZzLq3WR4gD21-JhD-6">
          <mxGeometry relative="1" as="geometry">
            <mxPoint x="160.0344827586207" y="259.9999999999999" as="sourcePoint" />
          </mxGeometry>
        </mxCell>
        <mxCell id="bAPJZzLq3WR4gD21-JhD-3" style="edgeStyle=orthogonalEdgeStyle;rounded=0;orthogonalLoop=1;jettySize=auto;html=1;entryX=0.798;entryY=1.012;entryDx=0;entryDy=0;exitX=0.5;exitY=0;exitDx=0;exitDy=0;entryPerimeter=0;" edge="1" parent="bAPJZzLq3WR4gD21-JhD-1" source="bAPJZzLq3WR4gD21-JhD-25" target="bAPJZzLq3WR4gD21-JhD-8">
          <mxGeometry relative="1" as="geometry">
            <mxPoint x="280.0344827586207" y="229.9999999999999" as="sourcePoint" />
          </mxGeometry>
        </mxCell>
        <mxCell id="bAPJZzLq3WR4gD21-JhD-4" style="edgeStyle=orthogonalEdgeStyle;rounded=0;orthogonalLoop=1;jettySize=auto;html=1;entryX=0.25;entryY=0;entryDx=0;entryDy=0;exitX=0.25;exitY=1;exitDx=0;exitDy=0;" edge="1" parent="bAPJZzLq3WR4gD21-JhD-1" source="bAPJZzLq3WR4gD21-JhD-6" target="bAPJZzLq3WR4gD21-JhD-15">
          <mxGeometry relative="1" as="geometry" />
        </mxCell>
        <mxCell id="bAPJZzLq3WR4gD21-JhD-5" style="edgeStyle=orthogonalEdgeStyle;rounded=0;orthogonalLoop=1;jettySize=auto;html=1;entryX=0.5;entryY=1;entryDx=0;entryDy=0;exitX=0.802;exitY=0.005;exitDx=0;exitDy=0;exitPerimeter=0;" edge="1" parent="bAPJZzLq3WR4gD21-JhD-1" source="bAPJZzLq3WR4gD21-JhD-6" target="bAPJZzLq3WR4gD21-JhD-25">
          <mxGeometry relative="1" as="geometry">
            <mxPoint x="280" y="259.9999999999999" as="targetPoint" />
          </mxGeometry>
        </mxCell>
        <mxCell id="bAPJZzLq3WR4gD21-JhD-6" value="Project Management Process" style="rounded=0;whiteSpace=wrap;html=1;align=center;verticalAlign=top;container=1;collapsible=0;fillColor=#dae8fc;strokeColor=#6c8ebf;" vertex="1" parent="bAPJZzLq3WR4gD21-JhD-1">
          <mxGeometry x="120" y="300" width="200" height="90" as="geometry" />
        </mxCell>
        <mxCell id="bAPJZzLq3WR4gD21-JhD-7" style="edgeStyle=orthogonalEdgeStyle;rounded=0;orthogonalLoop=1;jettySize=auto;html=1;exitX=0.25;exitY=1;exitDx=0;exitDy=0;entryX=0.5;entryY=0;entryDx=0;entryDy=0;" edge="1" parent="bAPJZzLq3WR4gD21-JhD-1" source="bAPJZzLq3WR4gD21-JhD-8" target="bAPJZzLq3WR4gD21-JhD-24">
          <mxGeometry relative="1" as="geometry">
            <mxPoint x="160.0344827586207" y="229.9999999999999" as="targetPoint" />
          </mxGeometry>
        </mxCell>
        <mxCell id="bAPJZzLq3WR4gD21-JhD-8" value="Customer" style="rounded=0;whiteSpace=wrap;html=1;align=center;strokeColor=#d79b00;fillColor=none;" vertex="1" parent="bAPJZzLq3WR4gD21-JhD-1">
          <mxGeometry x="120" y="200" width="200" height="20" as="geometry" />
        </mxCell>
        <mxCell id="bAPJZzLq3WR4gD21-JhD-9" value="Planning" style="rounded=0;whiteSpace=wrap;html=1;align=center;" vertex="1" parent="bAPJZzLq3WR4gD21-JhD-1">
          <mxGeometry x="130" y="330" width="80" height="20" as="geometry" />
        </mxCell>
        <mxCell id="bAPJZzLq3WR4gD21-JhD-10" style="edgeStyle=orthogonalEdgeStyle;rounded=0;orthogonalLoop=1;jettySize=auto;html=1;entryX=0.001;entryY=0.11;entryDx=0;entryDy=0;exitX=1;exitY=0.25;exitDx=0;exitDy=0;entryPerimeter=0;" edge="1" parent="bAPJZzLq3WR4gD21-JhD-1" source="bAPJZzLq3WR4gD21-JhD-6" target="bAPJZzLq3WR4gD21-JhD-17">
          <mxGeometry relative="1" as="geometry">
            <Array as="points">
              <mxPoint x="330" y="323" />
              <mxPoint x="330" y="225" />
            </Array>
          </mxGeometry>
        </mxCell>
        <mxCell id="bAPJZzLq3WR4gD21-JhD-11" value="Evaluation" style="rounded=0;whiteSpace=wrap;html=1;align=center;" vertex="1" parent="bAPJZzLq3WR4gD21-JhD-1">
          <mxGeometry x="230" y="330" width="80" height="20" as="geometry" />
        </mxCell>
        <mxCell id="bAPJZzLq3WR4gD21-JhD-12" value="Execution" style="rounded=0;whiteSpace=wrap;html=1;align=center;" vertex="1" parent="bAPJZzLq3WR4gD21-JhD-1">
          <mxGeometry x="130" y="360" width="80" height="20" as="geometry" />
        </mxCell>
        <mxCell id="bAPJZzLq3WR4gD21-JhD-13" value="Closure" style="rounded=0;whiteSpace=wrap;html=1;align=center;" vertex="1" parent="bAPJZzLq3WR4gD21-JhD-1">
          <mxGeometry x="230" y="360" width="80" height="20" as="geometry" />
        </mxCell>
        <mxCell id="bAPJZzLq3WR4gD21-JhD-14" style="edgeStyle=orthogonalEdgeStyle;rounded=0;orthogonalLoop=1;jettySize=auto;html=1;entryX=0.75;entryY=1;entryDx=0;entryDy=0;exitX=0.75;exitY=0;exitDx=0;exitDy=0;" edge="1" parent="bAPJZzLq3WR4gD21-JhD-1" source="bAPJZzLq3WR4gD21-JhD-15" target="bAPJZzLq3WR4gD21-JhD-6">
          <mxGeometry relative="1" as="geometry" />
        </mxCell>
        <mxCell id="bAPJZzLq3WR4gD21-JhD-15" value="Organisational Management" style="rounded=0;whiteSpace=wrap;html=1;align=center;" vertex="1" parent="bAPJZzLq3WR4gD21-JhD-1">
          <mxGeometry x="120" y="410" width="200" height="20" as="geometry" />
        </mxCell>
        <mxCell id="bAPJZzLq3WR4gD21-JhD-16" style="edgeStyle=elbowEdgeStyle;rounded=0;orthogonalLoop=1;jettySize=auto;html=1;exitX=-0.005;exitY=0.886;exitDx=0;exitDy=0;exitPerimeter=0;" edge="1" parent="bAPJZzLq3WR4gD21-JhD-1" source="bAPJZzLq3WR4gD21-JhD-17">
          <mxGeometry relative="1" as="geometry">
            <mxPoint x="320" y="368" as="targetPoint" />
            <Array as="points" />
          </mxGeometry>
        </mxCell>
        <mxCell id="bAPJZzLq3WR4gD21-JhD-17" value="Implementation Process" style="rounded=0;whiteSpace=wrap;html=1;align=center;verticalAlign=top;dropTarget=0;container=1;collapsible=0;recursiveResize=0;fillColor=#dae8fc;strokeColor=#6c8ebf;" vertex="1" parent="bAPJZzLq3WR4gD21-JhD-1">
          <mxGeometry x="350" y="200" width="200" height="230" as="geometry" />
        </mxCell>
        <mxCell id="bAPJZzLq3WR4gD21-JhD-18" value="Initialization (&quot;Disscovery&quot;)" style="rounded=0;whiteSpace=wrap;html=1;align=center;" vertex="1" parent="bAPJZzLq3WR4gD21-JhD-1">
          <mxGeometry x="360" y="240" width="180" height="20" as="geometry" />
        </mxCell>
        <mxCell id="bAPJZzLq3WR4gD21-JhD-19" value="Analysis (&quot;Defiinition&quot;)" style="rounded=0;whiteSpace=wrap;html=1;align=center;" vertex="1" parent="bAPJZzLq3WR4gD21-JhD-1">
          <mxGeometry x="360" y="270" width="180" height="20" as="geometry" />
        </mxCell>
        <mxCell id="bAPJZzLq3WR4gD21-JhD-20" value="Design" style="rounded=0;whiteSpace=wrap;html=1;align=center;" vertex="1" parent="bAPJZzLq3WR4gD21-JhD-1">
          <mxGeometry x="360" y="300" width="180" height="20" as="geometry" />
        </mxCell>
        <mxCell id="bAPJZzLq3WR4gD21-JhD-21" value="Construction&amp;nbsp;&lt;font style=&quot;font-size: 11px&quot;&gt;(&lt;font style=&quot;font-size: 11px&quot;&gt;&quot;Development&quot;&lt;/font&gt;)&lt;/font&gt;" style="rounded=0;whiteSpace=wrap;html=1;align=center;" vertex="1" parent="bAPJZzLq3WR4gD21-JhD-1">
          <mxGeometry x="360" y="330" width="180" height="20" as="geometry" />
        </mxCell>
        <mxCell id="bAPJZzLq3WR4gD21-JhD-22" value="&lt;p style=&quot;line-height: 90%&quot;&gt;Integration &amp;amp; Tests (&quot;Decision&quot;)&lt;/p&gt;" style="rounded=0;whiteSpace=wrap;html=1;align=center;" vertex="1" parent="bAPJZzLq3WR4gD21-JhD-1">
          <mxGeometry x="360" y="360" width="180" height="20" as="geometry" />
        </mxCell>
        <mxCell id="bAPJZzLq3WR4gD21-JhD-23" value="Delivery" style="rounded=0;whiteSpace=wrap;html=1;align=center;" vertex="1" parent="bAPJZzLq3WR4gD21-JhD-1">
          <mxGeometry x="360" y="390" width="170" height="20" as="geometry" />
        </mxCell>
        <mxCell id="bAPJZzLq3WR4gD21-JhD-24" value="Statement of Work" style="rounded=0;whiteSpace=wrap;html=1;align=center;fontStyle=2" vertex="1" parent="bAPJZzLq3WR4gD21-JhD-1">
          <mxGeometry x="120" y="240" width="80" height="40" as="geometry" />
        </mxCell>
        <mxCell id="bAPJZzLq3WR4gD21-JhD-25" value="Software Configuration" style="rounded=0;whiteSpace=wrap;html=1;align=center;fontStyle=2" vertex="1" parent="bAPJZzLq3WR4gD21-JhD-1">
          <mxGeometry x="240" y="240" width="80" height="40" as="geometry" />
        </mxCell>
        <mxCell id="bAPJZzLq3WR4gD21-JhD-26" value="Delivery" style="rounded=0;whiteSpace=wrap;html=1;align=center;" vertex="1" parent="bAPJZzLq3WR4gD21-JhD-1">
          <mxGeometry x="360" y="390" width="180" height="20" as="geometry" />
        </mxCell>
        <mxCell id="bAPJZzLq3WR4gD21-JhD-27" value="&lt;font style=&quot;font-size: 11px&quot;&gt;Warning:&amp;nbsp;&lt;br&gt;This ISO is intentionally light and therefore not suitable for all circumstances.&amp;nbsp;&lt;br&gt;- Does not demonstrate well key stages within the service life cycle (not just the delivery life cycle):&amp;nbsp;&lt;br&gt;&amp;nbsp;- Accreditation,&lt;br&gt;&amp;nbsp;- Change Control, &lt;br&gt;&amp;nbsp;- Operations,&amp;nbsp; &lt;br&gt;&amp;nbsp;- Measurement,&amp;nbsp;&lt;br&gt;&amp;nbsp;-&amp;nbsp;Maintenance&lt;/font&gt;" style="shape=note;whiteSpace=wrap;html=1;size=14;verticalAlign=top;align=left;spacingTop=-6;fillColor=none;strokeColor=#666666;fontColor=#333333;" vertex="1" parent="bAPJZzLq3WR4gD21-JhD-1">
          <mxGeometry x="560" y="200" width="120" height="240" as="geometry" />
        </mxCell>
        <mxCell id="bAPJZzLq3WR4gD21-JhD-28" value="&lt;font style=&quot;font-size: 12px&quot;&gt;Diagram: Delivery - ISO-29110 - System and Software Life Cycle Profiles &lt;br&gt;and Guidelines for Very Small Entities (VSEs) - &quot;Basic&quot; Profile&lt;/font&gt;" style="text;strokeColor=none;fillColor=none;html=1;fontSize=12;fontStyle=2;verticalAlign=middle;align=left;shadow=0;glass=0;comic=0;opacity=30;fontColor=#808080;" vertex="1" parent="bAPJZzLq3WR4gD21-JhD-1">
          <mxGeometry x="120" y="450" width="558" height="20" as="geometry" />
        </mxCell>
      </root>
    </mxGraphModel>
  </diagram>
</mxfile>
